Coordinates
version=1
nRows=17
nColumns=34
inDegrees=yes

Units are S.I. units (second, meters, Newtons, ...)
If the header above contains a line with 'inDegrees', this indicates whether rotational values are in degrees (yes) or radians (no).

endheader
time	pelvis_tilt	pelvis_list	pelvis_rotation	pelvis_tx	pelvis_ty	pelvis_tz	hip_flexion_r	hip_adduction_r	hip_rotation_r	knee_angle_r	ankle_angle_r	subtalar_angle_r	mtp_angle_r	hip_flexion_l	hip_adduction_l	hip_rotation_l	knee_angle_l	ankle_angle_l	subtalar_angle_l	mtp_angle_l	lumbar_extension	lumbar_bending	lumbar_rotation	arm_flex_r	arm_add_r	arm_rot_r	elbow_flex_r	pro_sup_r	arm_flex_l	arm_add_l	arm_rot_l	elbow_flex_l	pro_sup_l
      1.66666670	      7.64956832	     -0.30074329	    -21.44263948	      0.30958219	      1.00328027	      0.12231866	     -5.34081173	     -4.81409670	    -20.45091397	      2.17337586	     10.62886016	     -1.74458552	      0.00000000	      0.01759967	     -4.02443867	    -19.22613778	      3.88026983	     12.43768087	     -0.00525025	      0.00000000	     -7.68888404	      0.10027949	     -0.00146926	     21.59443896	    -11.25370795	     32.19196056	     20.87150873	    119.74817918	     22.42442300	    -11.82513922	     35.87934323	     24.70188657	    119.72329185
      1.68333330	      7.78093636	     -0.33247612	    -21.37867706	      0.30889134	      1.00337278	      0.12159134	     -5.33271927	     -4.88759809	    -20.55602532	      2.38564242	     10.57200654	     -1.88429637	      0.00000000	      0.06734902	     -4.02554327	    -19.11812900	      4.14646181	     12.43662366	     -0.03369917	      0.00000000	     -7.89788551	      0.09347636	      0.26120773	     22.28392095	    -11.11067488	     32.45306091	     21.11741776	    119.74817918	     23.55310534	    -11.37630798	     36.02541445	     25.33618563	    119.72383749
      1.70000000	      7.91356321	     -0.41229173	    -21.34907477	      0.30803467	      1.00339190	      0.12084676	     -5.30889430	     -4.91784742	    -20.56864745	      2.66437212	     10.62034285	     -2.03993118	      0.00000000	      0.12845331	     -4.09698448	    -19.02415499	      4.48176620	     12.51000768	     -0.15928306	      0.00000000	     -8.17920254	      0.14303250	      0.52564781	     23.01369311	    -10.97824402	     32.93839440	     21.23581279	    119.74817918	     24.64021974	    -11.00129988	     36.43442513	     25.89845491	    119.74817918
      1.71666670	      7.93493320	     -0.49856934	    -21.35921171	      0.30737629	      1.00320300	      0.12046927	     -5.22377101	     -4.87347044	    -20.21558091	      2.82830681	     10.59132885	     -2.48839726	      0.00000000	      0.21882703	     -4.16957251	    -18.80309589	      4.66351090	     12.53449265	     -0.75699638	      0.00000000	     -8.19705403	      0.21323388	      0.71102964	     24.03668144	    -11.08889767	     36.86955599	     20.76803512	    119.74817918	     26.01234158	    -10.98742552	     39.94660406	     25.87721465	    119.71834152
      1.73333330	      7.93765038	     -0.48451324	    -21.29066947	      0.30703508	      1.00293199	      0.11983246	     -5.21728953	     -4.88774434	    -20.23253591	      2.78861275	     10.60469959	     -2.51470061	      0.00000000	      0.25974004	     -4.12466651	    -18.79282763	      4.63085641	     12.55809297	     -0.76268229	      0.00000000	     -8.18226458	      0.21480701	      0.78339534	     24.45580762	    -10.95836661	     36.90354223	     20.87228113	    119.74817918	     26.64000606	    -10.65395765	     39.91372069	     26.15059797	    119.70264262
      1.75000000	      7.97097038	     -0.49717586	    -21.28766693	      0.30713951	      1.00276166	      0.11968999	     -5.24575357	     -4.91040067	    -20.24171668	      2.80519605	     10.60543908	     -2.53061809	      0.00000000	      0.23837513	     -4.10848367	    -18.78014898	      4.66557349	     12.56457289	     -0.76539431	      0.00000000	     -8.09138219	      0.23153427	      0.80378723	     24.70101631	    -10.74481727	     36.93327770	     20.98594347	    119.74817918	     26.95440011	    -10.36205522	     39.92291936	     26.32119235	    119.70082127
      1.76666670	      8.06194999	     -0.51452062	    -21.24626548	      0.30586347	      1.00262350	      0.11886079	     -5.20346994	     -4.96313191	    -20.24096496	      2.91048396	     10.59997036	     -2.58754075	      0.00000000	      0.31614656	     -4.10191048	    -18.70653582	      4.81058873	     12.58097839	     -0.77717220	      0.00000000	     -8.39556474	      0.22235254	      0.87158715	     25.20014402	    -10.79303284	     36.99714522	     21.08560994	    119.74817918	     27.56648703	    -10.19661407	     39.93046253	     26.50401516	    119.68957457
      1.78333330	      8.08815907	     -0.52930897	    -21.25718438	      0.30607577	      1.00263545	      0.11895041	     -5.23979626	     -4.97131626	    -20.24120077	      2.94569194	     10.59751789	     -2.59461199	      0.00000000	      0.27905226	     -4.10920329	    -18.70199009	      4.84739895	     12.57949694	     -0.78060952	      0.00000000	     -8.30642946	      0.22043467	      0.86041302	     25.28483661	    -10.71850029	     37.00701499	     21.13900727	    119.74817918	     27.64557072	    -10.11054298	     39.93846277	     26.55014049	    119.68963102
      1.80000000	      8.19874681	     -0.56331198	    -21.26456918	      0.30490442	      1.00267346	      0.11820847	     -5.19459360	     -5.03160572	    -20.22248382	      3.11069968	     10.62254512	     -2.68361473	      0.00000000	      0.32484199	     -4.10616870	    -18.66462611	      5.00494717	     12.64141991	     -0.84146195	      0.00000000	     -8.66749018	      0.25091732	      0.77294631	     25.67457277	    -10.71899328	     37.09352384	     21.40180030	    119.74817918	     27.92674568	    -10.07955044	     40.00170534	     26.63815512	    119.67926365
      1.81666670	      8.21362260	     -0.57187209	    -21.26459839	      0.30473490	      1.00261583	      0.11801463	     -5.19336722	     -5.03310673	    -20.22239224	      3.11107905	     10.62262332	     -2.68429462	      0.00000000	      0.33197507	     -4.10706119	    -18.66413763	      5.00275589	     12.64151453	     -0.84157892	      0.00000000	     -8.66545506	      0.24954464	      0.77434488	     25.67309345	    -10.71625772	     37.09481239	     21.40358338	    119.74817918	     27.92171802	    -10.07731311	     40.00327234	     26.63835643	    119.67930904
      1.83333330	      8.22283234	     -0.58102461	    -21.26372490	      0.30436123	      1.00253196	      0.11780480	     -5.17289756	     -5.03751291	    -20.22094044	      3.11474240	     10.62203360	     -2.69016292	      0.00000000	      0.35845868	     -4.10577838	    -18.65753755	      5.00978593	     12.64177032	     -0.84263078	      0.00000000	     -8.76155167	      0.24530953	      0.77642264	     25.62415395	    -10.69614567	     37.10924364	     21.41048974	    119.74817918	     27.80643621	    -10.03747346	     40.03142535	     26.62972048	    119.68161588
      1.85000000	      8.31152074	     -0.61418433	    -21.31927184	      0.30488582	      1.00270134	      0.11754933	     -5.24087650	     -5.10091222	    -20.20926781	      3.22834968	     10.59671168	     -2.71714711	      0.00000000	      0.28770123	     -4.10213766	    -18.63208114	      5.16342252	     12.64382421	     -0.86262447	      0.00000000	     -8.79169190	      0.31525299	      0.74189143	     25.47453353	    -10.70010437	     37.15754801	     21.44232842	    119.74817918	     27.40711543	     -9.95738552	     40.14254737	     26.59931252	    119.68866531
      1.86666670	      8.30745955	     -0.62572849	    -21.31127130	      0.30427323	      1.00265842	      0.11717355	     -5.19582335	     -5.10399028	    -20.20415160	      3.21261666	     10.59820601	     -2.71883181	      0.00000000	      0.33488569	     -4.09979821	    -18.63385409	      5.14604303	     12.65776520	     -0.87171898	      0.00000000	     -8.95320891	      0.30908888	      0.74489832	     25.35766565	    -10.72358980	     37.17245809	     21.41128141	    119.74817918	     27.23488163	     -9.98044971	     40.17191774	     26.55381946	    119.69123023
      1.88333330	      8.41901803	     -0.68433935	    -21.38949308	      0.30528532	      1.00294216	      0.11726562	     -5.31728921	     -5.15311691	    -20.16828719	      3.36294539	     10.57192794	     -2.73188810	      0.00000000	      0.19354397	     -4.12311066	    -18.62747489	      5.33390306	     12.70032870	     -0.92770552	      0.00000000	     -8.91928303	      0.36541230	      0.69595798	     24.93594909	    -10.81733047	     37.23070673	     21.30649443	    119.74817918	     26.48542736	    -10.05682449	     40.32809489	     26.35058818	    119.70476158
      1.90000000	      8.39928597	     -0.71040034	    -21.47759547	      0.30622400	      1.00287621	      0.11749939	     -5.43329821	     -5.10481487	    -20.06257347	      3.18979539	     10.63514198	     -2.71790423	      0.00000000	      0.05683043	     -4.11546338	    -18.71973487	      5.20034151	     13.00016878	     -1.10668981	      0.00000000	     -8.75624024	      0.39556319	      0.63725606	     24.42208180	    -10.79822929	     37.40050276	     21.16467205	    119.74817918	     25.73642346	    -10.12696226	     40.65172414	     26.05785444	    119.71676933
      1.91666670	      8.46736945	     -0.75164844	    -21.55554085	      0.30661202	      1.00294351	      0.11780264	     -5.51048969	     -5.11409070	    -20.00681691	      3.25256277	     10.62886825	     -2.71819325	      0.00000000	     -0.01968254	     -4.15225681	    -18.67629729	      5.34577490	     12.99574410	     -1.10964524	      0.00000000	     -8.83272783	      0.38173350	      0.61901692	     24.01085138	    -10.82435456	     37.46707637	     21.01212901	    119.74817918	     25.02163758	    -10.19621976	     40.82303378	     25.74283671	    119.72513033
      1.93333330	      8.50250300	     -0.76654823	    -21.60258296	      0.30718555	      1.00289339	      0.11812274	     -5.64801277	     -5.07892318	    -19.90631433	      3.12479167	     10.73840923	     -2.73297229	      0.00000000	     -0.13749114	     -4.15301603	    -18.75357773	      5.29728661	     13.18165037	     -1.22037154	      0.00000000	     -8.80217526	      0.35199138	      0.48041880	     23.53900608	    -10.80363122	     37.54449666	     20.71121553	    119.74817918	     24.23727202	    -10.30036021	     41.07357234	     25.04789197	    119.72204267
